<svg xmlns="http://www.w3.org/2000/svg" xmlns:xlink="http://www.w3.org/1999/xlink" width="2000" zoomAndPan="magnify" viewBox="0 0 1500 1499.999933" height="2000" preserveAspectRatio="xMidYMid meet" version="1.0"><defs><g/><clipPath id="8a970065fd"><rect x="0" width="1494" y="0" height="315"/></clipPath></defs><g transform="matrix(1, 0, 0, 1, 6, 564)"><g clip-path="url(#8a970065fd)"><g fill="#000000" fill-opacity="1"><g transform="translate(0.693135, 244.989508)"><g><path d="M 105.796875 0 L 18.984375 0 L 18.984375 -159.5 L 37.53125 -159.5 L 37.53125 -16.171875 L 105.796875 -16.171875 Z M 105.796875 0 "/></g></g></g><g fill="#000000" fill-opacity="1"><g transform="translate(138.202946, 244.989508)"><g><path d="M 114.171875 0 L 94.265625 0 L 79.359375 -55.84375 L 35.375 -55.84375 L 20.796875 0 L 1.578125 0 L 46.796875 -159.5 L 68.953125 -159.5 Z M 75.515625 -72 L 57.875 -138.015625 L 40.234375 -72 Z M 75.515625 -72 "/></g></g></g><g fill="#000000" fill-opacity="1"><g transform="translate(275.712756, 244.989508)"><g><path d="M 99.140625 0 L 78.453125 0 L 32.21875 -127.046875 L 32.21875 0 L 16.609375 0 L 16.609375 -159.5 L 37.296875 -159.5 L 83.765625 -33.578125 L 83.765625 -159.5 L 99.140625 -159.5 Z M 99.140625 0 "/></g></g></g><g fill="#000000" fill-opacity="1"><g transform="translate(413.222567, 244.989508)"><g><path d="M 16.609375 -159.5 L 41.265625 -159.5 C 61.535156 -159.5 77.320312 -152.5625 88.625 -138.6875 C 99.925781 -124.820312 105.578125 -105.15625 105.578125 -79.6875 C 105.578125 -54.363281 99.925781 -34.75 88.625 -20.84375 C 77.320312 -6.945312 61.757812 0 41.9375 0 L 16.609375 0 Z M 35.15625 -16.171875 L 41.484375 -16.171875 C 55.953125 -16.171875 66.972656 -21.554688 74.546875 -32.328125 C 82.117188 -43.109375 85.90625 -58.894531 85.90625 -79.6875 C 85.90625 -100.332031 82.097656 -116.097656 74.484375 -126.984375 C 66.878906 -137.878906 55.878906 -143.328125 41.484375 -143.328125 L 35.15625 -143.328125 Z M 35.15625 -16.171875 "/></g></g></g><g fill="#000000" fill-opacity="1"><g transform="translate(550.732377, 244.989508)"><g><path d="M 105.796875 0 L 18.984375 0 L 18.984375 -159.5 L 37.53125 -159.5 L 37.53125 -16.171875 L 105.796875 -16.171875 Z M 105.796875 0 "/></g></g></g><g fill="#000000" fill-opacity="1"><g transform="translate(688.242188, 244.989508)"><g><path d="M 93.03125 0 L 20.578125 0 L 20.578125 -16.171875 L 48.15625 -16.171875 L 48.15625 -143.328125 L 20.578125 -143.328125 L 20.578125 -159.5 L 93.03125 -159.5 L 93.03125 -143.328125 L 66.6875 -143.328125 L 66.6875 -16.171875 L 93.03125 -16.171875 Z M 93.03125 0 "/></g></g></g><g fill="#000000" fill-opacity="1"><g transform="translate(825.751998, 244.989508)"><g><path d="M 72.453125 -87.484375 C 83.078125 -85.003906 91.40625 -80.179688 97.4375 -73.015625 C 103.46875 -65.859375 106.484375 -57.34375 106.484375 -47.46875 C 106.484375 -33.382812 101.300781 -21.953125 90.9375 -13.171875 C 80.570312 -4.390625 67.851562 0 52.78125 0 L 16.609375 0 L 16.609375 -159.5 L 51.65625 -159.5 C 66.957031 -159.5 78.957031 -156.125 87.65625 -149.375 C 96.363281 -142.632812 100.71875 -133.125 100.71875 -120.84375 C 100.71875 -113.300781 98.210938 -106.59375 93.203125 -100.71875 C 88.191406 -94.84375 81.273438 -90.582031 72.453125 -87.9375 Z M 35.15625 -96.078125 L 47.703125 -96.078125 C 70.378906 -96.078125 81.71875 -104.179688 81.71875 -120.390625 C 81.71875 -127.546875 78.984375 -133.15625 73.515625 -137.21875 C 68.054688 -141.289062 59.828125 -143.328125 48.828125 -143.328125 L 35.15625 -143.328125 Z M 35.15625 -16.171875 L 47.03125 -16.171875 C 59.3125 -16.171875 69.046875 -18.957031 76.234375 -24.53125 C 83.429688 -30.101562 87.03125 -37.75 87.03125 -47.46875 C 87.03125 -57.800781 83.488281 -65.789062 76.40625 -71.4375 C 69.320312 -77.09375 59.035156 -79.921875 45.546875 -79.921875 L 35.15625 -79.921875 Z M 35.15625 -16.171875 "/></g></g></g><g fill="#000000" fill-opacity="1"><g transform="translate(963.261809, 244.989508)"><g><path d="M 113.15625 0 L 92.796875 0 L 53.6875 -71.546875 L 35.15625 -71.546875 L 35.15625 0 L 16.609375 0 L 16.609375 -159.5 L 52.5625 -159.5 C 67.78125 -159.5 79.988281 -155.65625 89.1875 -147.96875 C 98.382812 -140.28125 102.984375 -129.691406 102.984375 -116.203125 C 102.984375 -106.023438 100.269531 -97.222656 94.84375 -89.796875 C 89.414062 -82.378906 81.726562 -77.128906 71.78125 -74.046875 Z M 35.15625 -87.71875 L 50.75 -87.71875 C 72.457031 -87.71875 83.3125 -96.835938 83.3125 -115.078125 C 83.3125 -123.585938 80.351562 -130.421875 74.4375 -135.578125 C 68.519531 -140.742188 60.925781 -143.328125 51.65625 -143.328125 L 35.15625 -143.328125 Z M 35.15625 -87.71875 "/></g></g></g><g fill="#000000" fill-opacity="1"><g transform="translate(1100.771619, 244.989508)"><g><path d="M 114.171875 0 L 94.265625 0 L 79.359375 -55.84375 L 35.375 -55.84375 L 20.796875 0 L 1.578125 0 L 46.796875 -159.5 L 68.953125 -159.5 Z M 75.515625 -72 L 57.875 -138.015625 L 40.234375 -72 Z M 75.515625 -72 "/></g></g></g><g fill="#000000" fill-opacity="1"><g transform="translate(1238.28143, 244.989508)"><g><path d="M 113.15625 0 L 92.796875 0 L 53.6875 -71.546875 L 35.15625 -71.546875 L 35.15625 0 L 16.609375 0 L 16.609375 -159.5 L 52.5625 -159.5 C 67.78125 -159.5 79.988281 -155.65625 89.1875 -147.96875 C 98.382812 -140.28125 102.984375 -129.691406 102.984375 -116.203125 C 102.984375 -106.023438 100.269531 -97.222656 94.84375 -89.796875 C 89.414062 -82.378906 81.726562 -77.128906 71.78125 -74.046875 Z M 35.15625 -87.71875 L 50.75 -87.71875 C 72.457031 -87.71875 83.3125 -96.835938 83.3125 -115.078125 C 83.3125 -123.585938 80.351562 -130.421875 74.4375 -135.578125 C 68.519531 -140.742188 60.925781 -143.328125 51.65625 -143.328125 L 35.15625 -143.328125 Z M 35.15625 -87.71875 "/></g></g></g><g fill="#000000" fill-opacity="1"><g transform="translate(1375.79124, 244.989508)"><g><path d="M 114.625 -159.5 L 67.140625 -68.28125 L 67.140625 0 L 48.609375 0 L 48.609375 -68.28125 L 1.125 -159.5 L 22.046875 -159.5 L 57.875 -87.71875 L 93.703125 -159.5 Z M 114.625 -159.5 "/></g></g></g></g></g></svg>